<svg id="Calque_1" data-name="Calque 1" xmlns="http://www.w3.org/2000/svg" viewBox="0 0 24 24"><defs><style>.cls-1{fill-opacity:0;}.cls-2{fill:none;stroke:#000;stroke-linecap:round;stroke-miterlimit:10;stroke-width:1.7px;}</style></defs><title>chart 2</title><rect class="cls-1" width="24" height="24"/><path d="M22.4,7V6.6l-.1-.1c0-.1-.1-.1-.1-.2L22,6.2c-.1,0-.1-.1-.2-.1h-.2a.35.35,0,0,0-.2-.1h-5a.94.94,0,0,0-1,1,.94.94,0,0,0,1,1h2.8l-4,4.7L11,10.1a1,1,0,0,0-1.3.2l-5,6a1,1,0,0,0,.1,1.4h0a.86.86,0,0,0,.6.3.91.91,0,0,0,.8-.4l4.4-5.3,4.3,2.6a1.06,1.06,0,0,0,1.3-.2l4.2-4.9V12a1,1,0,0,0,2,0Z"/><line class="cls-2" x1="1.4" y1="1.4" x2="1.5" y2="22"/><line class="cls-2" x1="23" y1="22" x2="1.7" y2="22"/></svg>