<?xml version="1.0" encoding="utf-8"?>
<!-- Generator: Adobe Illustrator 23.0.3, SVG Export Plug-In . SVG Version: 6.00 Build 0)  -->
<svg version="1.1" id="Calque_1" xmlns="http://www.w3.org/2000/svg" xmlns:xlink="http://www.w3.org/1999/xlink" x="0px" y="0px"
	 viewBox="0 0 24 24" style="enable-background:new 0 0 24 24;" xml:space="preserve">
<style type="text/css">
	.st0{fill-opacity:0;}
	.st1{fill:none;stroke:#000000;stroke-width:1.7008;stroke-linecap:round;stroke-miterlimit:10;}
</style>
<g>
	<g>
		<rect class="st0" width="24" height="24"/>
		<path d="M22.4,7c0-0.1,0-0.1,0-0.2c0-0.1,0-0.1,0-0.2c0,0-0.1-0.1-0.1-0.1c0-0.1-0.1-0.1-0.1-0.2L22,6.2c-0.1,0-0.1-0.1-0.2-0.1
			h-0.2C21.6,6.1,21.5,6,21.4,6h-5c-0.6,0-1,0.4-1,1s0.4,1,1,1h2.8l-4,4.7L11,10.1c-0.4-0.3-1-0.2-1.3,0.2l-5,6
			c-0.4,0.4-0.3,1.1,0.1,1.4c0,0,0,0,0,0C5,17.9,5.2,18,5.4,18c0.3,0,0.6-0.1,0.8-0.4l4.4-5.3l4.3,2.6c0.4,0.2,1,0.2,1.3-0.2
			l4.2-4.9V12c0,0.6,0.4,1,1,1s1-0.4,1-1V7z"/>
	</g>
</g>
<g>
	<line class="st1" x1="1.4" y1="1.4" x2="1.5" y2="22"/>
	<line class="st1" x1="23" y1="22" x2="1.7" y2="22"/>
</g>
</svg>
